<svg width="681" height="286" viewBox="0 0 681 286" fill="none" xmlns="http://www.w3.org/2000/svg">
<g id="Logo Pink" clip-path="url(#clip0_0_1)">
<g id="louisehutton">
<path id="Vector" d="M644.068 241.217C646.529 238.15 649.364 235.688 652.575 233.834C655.821 231.979 659.423 231.051 663.383 231.051C666.307 231.051 668.876 231.515 671.087 232.442C673.334 233.37 675.189 234.707 676.652 236.455C678.114 238.203 679.22 240.308 679.969 242.769C680.718 245.23 681.092 248.012 681.092 251.115V285.144H675.956V251.115C675.956 246.122 674.815 242.216 672.532 239.398C670.249 236.544 666.771 235.118 662.098 235.118C658.638 235.118 655.393 236.009 652.361 237.793C649.364 239.541 646.689 241.984 644.335 245.123V285.144H639.199V231.907H642.034C642.926 231.907 643.443 232.353 643.586 233.245L644.068 241.217Z" fill="#E43A6C"/>
<path id="Vector_2" d="M600.61 231.051C604.426 231.051 607.833 231.711 610.829 233.031C613.861 234.315 616.411 236.152 618.48 238.542C620.549 240.932 622.118 243.821 623.188 247.21C624.294 250.562 624.847 254.326 624.847 258.499C624.847 262.672 624.294 266.435 623.188 269.788C622.118 273.141 620.549 276.013 618.48 278.402C616.411 280.792 613.861 282.629 610.829 283.913C607.833 285.197 604.426 285.839 600.61 285.839C596.793 285.839 593.369 285.197 590.337 283.913C587.341 282.629 584.79 280.792 582.686 278.402C580.617 276.013 579.03 273.141 577.924 269.788C576.854 266.435 576.319 262.672 576.319 258.499C576.319 254.326 576.854 250.562 577.924 247.21C579.03 243.821 580.617 240.932 582.686 238.542C584.79 236.152 587.341 234.315 590.337 233.031C593.369 231.711 596.793 231.051 600.61 231.051ZM600.61 281.827C603.784 281.827 606.549 281.292 608.903 280.222C611.293 279.116 613.272 277.546 614.842 275.513C616.447 273.48 617.642 271.037 618.427 268.183C619.211 265.294 619.604 262.066 619.604 258.499C619.604 254.968 619.211 251.757 618.427 248.868C617.642 245.979 616.447 243.518 614.842 241.485C613.272 239.416 611.293 237.829 608.903 236.723C606.549 235.617 603.784 235.064 600.61 235.064C597.435 235.064 594.653 235.617 592.263 236.723C589.909 237.829 587.929 239.416 586.324 241.485C584.755 243.518 583.56 245.979 582.739 248.868C581.955 251.757 581.562 254.968 581.562 258.499C581.562 262.066 581.955 265.294 582.739 268.183C583.56 271.037 584.755 273.48 586.324 275.513C587.929 277.546 589.909 279.116 592.263 280.222C594.653 281.292 597.435 281.827 600.61 281.827Z" fill="#E43A6C"/>
<path id="Vector_3" d="M523.754 286C520.151 286 517.333 285.001 515.3 283.004C513.303 281.006 512.304 277.921 512.304 273.748V237.365H504.653C504.26 237.365 503.939 237.258 503.69 237.044C503.44 236.83 503.315 236.527 503.315 236.134V234.155L512.411 233.512L513.695 214.465C513.766 214.144 513.909 213.859 514.123 213.609C514.337 213.359 514.64 213.234 515.033 213.234H517.44V233.566H546.279L547.563 214.465C547.634 214.144 547.777 213.859 547.991 213.609C548.205 213.359 548.508 213.234 548.901 213.234H551.308V233.566H568.109V237.365H551.308V273.48C551.308 274.942 551.487 276.209 551.843 277.279C552.236 278.313 552.753 279.169 553.395 279.847C554.073 280.525 554.857 281.024 555.749 281.345C556.641 281.666 557.604 281.827 558.638 281.827C559.922 281.827 561.028 281.648 561.956 281.292C562.883 280.899 563.686 280.489 564.363 280.061C565.041 279.597 565.594 279.187 566.022 278.83C566.45 278.438 566.789 278.242 567.038 278.242C567.324 278.242 567.609 278.42 567.895 278.777L569.286 281.024C567.93 282.522 566.2 283.735 564.096 284.662C562.027 285.554 559.869 286 557.622 286C554.019 286 551.201 285.001 549.168 283.004C547.171 281.006 546.172 277.921 546.172 273.748V237.365H517.44V273.48C517.44 274.942 517.619 276.209 517.975 277.279C518.368 278.313 518.885 279.169 519.527 279.847C520.205 280.525 520.989 281.024 521.881 281.345C522.773 281.666 523.736 281.827 524.77 281.827C526.054 281.827 527.16 281.648 528.088 281.292C529.015 280.899 529.818 280.489 530.495 280.061C531.173 279.597 531.726 279.187 532.154 278.83C532.582 278.438 532.921 278.242 533.17 278.242C533.456 278.242 533.741 278.42 534.026 278.777L535.418 281.024C534.062 282.522 532.332 283.735 530.228 284.662C528.159 285.554 526.001 286 523.754 286Z" fill="#E43A6C"/>
<path id="Vector_4" d="M491.672 231.907V285.144H488.836C487.945 285.144 487.427 284.68 487.285 283.753L486.803 275.834C484.342 278.902 481.489 281.363 478.243 283.218C475.032 285.073 471.448 286 467.488 286C464.528 286 461.942 285.536 459.73 284.609C457.519 283.681 455.682 282.344 454.219 280.596C452.757 278.848 451.651 276.744 450.902 274.283C450.153 271.821 449.778 269.039 449.778 265.936V231.907H454.915V265.936C454.915 270.93 456.056 274.853 458.339 277.707C460.622 280.525 464.1 281.934 468.772 281.934C472.232 281.934 475.46 281.06 478.457 279.312C481.489 277.528 484.182 275.067 486.536 271.928V231.907H491.672Z" fill="#E43A6C"/>
<path id="Vector_5" d="M396.67 240.896C399.131 237.9 401.931 235.51 405.07 233.727C408.245 231.943 411.794 231.051 415.717 231.051C418.642 231.051 421.21 231.515 423.422 232.442C425.669 233.37 427.524 234.707 428.986 236.455C430.449 238.203 431.555 240.308 432.304 242.769C433.053 245.23 433.427 248.012 433.427 251.115V285.144H428.291V251.115C428.291 246.122 427.149 242.216 424.867 239.398C422.584 236.544 419.106 235.118 414.433 235.118C410.973 235.118 407.727 236.009 404.696 237.793C401.699 239.541 399.024 241.984 396.67 245.123V285.144H391.534V207.296H396.67V240.896Z" fill="#E43A6C"/>
<path id="Vector_6" d="M373.076 253.149C373.076 250.295 372.666 247.745 371.846 245.497C371.061 243.215 369.937 241.288 368.475 239.719C367.012 238.15 365.265 236.955 363.232 236.134C361.234 235.278 359.023 234.85 356.597 234.85C353.85 234.85 351.389 235.278 349.213 236.134C347.038 236.99 345.147 238.221 343.542 239.826C341.973 241.431 340.706 243.357 339.743 245.604C338.78 247.852 338.138 250.366 337.817 253.149H373.076ZM337.55 256.412V257.429C337.55 261.424 338.013 264.937 338.941 267.969C339.868 271.001 341.188 273.551 342.9 275.62C344.612 277.653 346.681 279.187 349.106 280.222C351.532 281.256 354.243 281.773 357.239 281.773C359.914 281.773 362.233 281.488 364.195 280.917C366.156 280.311 367.797 279.651 369.117 278.937C370.472 278.188 371.542 277.529 372.327 276.958C373.112 276.351 373.683 276.048 374.039 276.048C374.503 276.048 374.86 276.227 375.109 276.583L376.501 278.295C375.644 279.366 374.503 280.364 373.076 281.292C371.685 282.219 370.116 283.022 368.368 283.699C366.656 284.341 364.801 284.859 362.803 285.251C360.842 285.643 358.862 285.839 356.865 285.839C353.226 285.839 349.909 285.215 346.913 283.967C343.917 282.683 341.348 280.828 339.208 278.402C337.068 275.977 335.409 273.016 334.232 269.521C333.091 265.989 332.52 261.959 332.52 257.429C332.52 253.612 333.055 250.099 334.125 246.889C335.231 243.643 336.801 240.86 338.834 238.542C340.903 236.188 343.417 234.351 346.378 233.031C349.374 231.711 352.763 231.051 356.544 231.051C359.54 231.051 362.322 231.569 364.89 232.603C367.458 233.637 369.688 235.153 371.578 237.151C373.469 239.113 374.949 241.538 376.019 244.427C377.125 247.317 377.678 250.634 377.678 254.379C377.678 255.164 377.571 255.699 377.357 255.984C377.143 256.27 376.786 256.412 376.287 256.412H337.55Z" fill="#E43A6C"/>
<path id="Vector_7" d="M319.54 238.488C319.254 238.988 318.844 239.237 318.309 239.237C317.917 239.237 317.417 239.023 316.811 238.595C316.205 238.132 315.384 237.632 314.35 237.097C313.351 236.527 312.103 236.027 310.604 235.599C309.106 235.136 307.287 234.904 305.147 234.904C303.221 234.904 301.455 235.189 299.85 235.76C298.281 236.295 296.925 237.026 295.784 237.953C294.678 238.881 293.822 239.969 293.216 241.217C292.609 242.43 292.306 243.714 292.306 245.069C292.306 246.746 292.734 248.137 293.59 249.243C294.446 250.348 295.552 251.294 296.907 252.078C298.299 252.863 299.886 253.541 301.669 254.112C303.453 254.682 305.254 255.253 307.073 255.824C308.928 256.394 310.747 257.036 312.531 257.75C314.314 258.428 315.884 259.284 317.239 260.318C318.63 261.352 319.754 262.619 320.61 264.117C321.466 265.615 321.894 267.434 321.894 269.574C321.894 271.893 321.484 274.051 320.663 276.048C319.843 278.046 318.63 279.776 317.025 281.238C315.455 282.701 313.512 283.86 311.193 284.716C308.874 285.572 306.217 286 303.221 286C299.476 286 296.248 285.411 293.537 284.234C290.826 283.022 288.4 281.452 286.26 279.526L287.437 277.707C287.616 277.422 287.812 277.208 288.026 277.065C288.275 276.922 288.596 276.851 288.989 276.851C289.453 276.851 290.005 277.136 290.647 277.707C291.325 278.278 292.217 278.902 293.323 279.58C294.428 280.222 295.784 280.828 297.389 281.399C299.03 281.969 301.045 282.255 303.435 282.255C305.682 282.255 307.662 281.952 309.374 281.345C311.086 280.703 312.513 279.847 313.654 278.777C314.796 277.707 315.652 276.458 316.222 275.032C316.829 273.569 317.132 272.035 317.132 270.43C317.132 268.647 316.704 267.167 315.848 265.989C314.992 264.812 313.868 263.814 312.477 262.993C311.086 262.173 309.499 261.477 307.715 260.907C305.967 260.336 304.166 259.765 302.311 259.194C300.457 258.624 298.637 258 296.854 257.322C295.106 256.644 293.537 255.788 292.146 254.754C290.754 253.719 289.631 252.471 288.775 251.008C287.919 249.51 287.491 247.655 287.491 245.444C287.491 243.553 287.901 241.734 288.721 239.987C289.542 238.239 290.701 236.705 292.199 235.385C293.733 234.065 295.588 233.013 297.764 232.228C299.939 231.444 302.383 231.051 305.094 231.051C308.339 231.051 311.211 231.515 313.708 232.442C316.24 233.37 318.541 234.797 320.61 236.723L319.54 238.488Z" fill="#E43A6C"/>
<path id="Vector_8" d="M272.118 231.907V285.144H267.035V231.907H272.118ZM274.312 213.555C274.312 214.198 274.169 214.804 273.884 215.375C273.634 215.91 273.295 216.391 272.867 216.819C272.439 217.247 271.94 217.586 271.369 217.836C270.799 218.085 270.192 218.21 269.55 218.21C268.908 218.21 268.302 218.085 267.731 217.836C267.16 217.586 266.661 217.247 266.233 216.819C265.805 216.391 265.466 215.91 265.216 215.375C264.967 214.804 264.842 214.198 264.842 213.555C264.842 212.913 264.967 212.307 265.216 211.736C265.466 211.13 265.805 210.613 266.233 210.185C266.661 209.757 267.16 209.418 267.731 209.168C268.302 208.918 268.908 208.794 269.55 208.794C270.192 208.794 270.799 208.918 271.369 209.168C271.94 209.418 272.439 209.757 272.867 210.185C273.295 210.613 273.634 211.13 273.884 211.736C274.169 212.307 274.312 212.913 274.312 213.555Z" fill="#E43A6C"/>
<path id="Vector_9" d="M248.918 231.907V285.144H246.083C245.191 285.144 244.674 284.68 244.531 283.753L244.05 275.834C241.588 278.902 238.735 281.363 235.489 283.218C232.279 285.073 228.694 286 224.735 286C221.774 286 219.188 285.536 216.977 284.609C214.765 283.681 212.928 282.344 211.466 280.596C210.003 278.848 208.897 276.744 208.148 274.283C207.399 271.821 207.025 269.039 207.025 265.936V231.907H212.161V265.936C212.161 270.93 213.303 274.853 215.585 277.707C217.868 280.525 221.346 281.934 226.019 281.934C229.479 281.934 232.707 281.06 235.703 279.312C238.735 277.528 241.428 275.067 243.782 271.928V231.907H248.918Z" fill="#E43A6C"/>
<path id="Vector_10" d="M169.024 231.051C172.841 231.051 176.247 231.711 179.244 233.031C182.276 234.315 184.826 236.152 186.895 238.542C188.964 240.932 190.533 243.821 191.603 247.21C192.709 250.562 193.262 254.326 193.262 258.499C193.262 262.672 192.709 266.435 191.603 269.788C190.533 273.141 188.964 276.013 186.895 278.402C184.826 280.792 182.276 282.629 179.244 283.913C176.247 285.197 172.841 285.839 169.024 285.839C165.208 285.839 161.783 285.197 158.752 283.913C155.755 282.629 153.205 280.792 151.101 278.402C149.032 276.013 147.444 273.141 146.339 269.788C145.269 266.435 144.734 262.672 144.734 258.499C144.734 254.326 145.269 250.562 146.339 247.21C147.444 243.821 149.032 240.932 151.101 238.542C153.205 236.152 155.755 234.315 158.752 233.031C161.783 231.711 165.208 231.051 169.024 231.051ZM169.024 281.827C172.199 281.827 174.963 281.292 177.317 280.222C179.707 279.116 181.687 277.546 183.256 275.513C184.862 273.48 186.056 271.037 186.841 268.183C187.626 265.294 188.018 262.066 188.018 258.499C188.018 254.968 187.626 251.757 186.841 248.868C186.056 245.979 184.862 243.518 183.256 241.485C181.687 239.416 179.707 237.829 177.317 236.723C174.963 235.617 172.199 235.064 169.024 235.064C165.85 235.064 163.068 235.617 160.678 236.723C158.324 237.829 156.344 239.416 154.739 241.485C153.169 243.518 151.974 245.979 151.154 248.868C150.369 251.757 149.977 254.968 149.977 258.499C149.977 262.066 150.369 265.294 151.154 268.183C151.974 271.037 153.169 273.48 154.739 275.513C156.344 277.546 158.324 279.116 160.678 280.222C163.068 281.292 165.85 281.827 169.024 281.827Z" fill="#E43A6C"/>
<path id="Vector_11" d="M129.945 207.296V285.144H124.808V207.296H129.945Z" fill="#E43A6C"/>
</g>
<g id="Group 1">
<path id="Vector_12" d="M77.8462 93.0357L101.921 134.734L77.8462 176.432H29.6974L5.62304 134.734L29.6974 93.0357H77.8462ZM80.6455 88.1672H26.8737L0 134.734L26.8737 181.3H80.6455L107.519 134.734L80.6455 88.1672Z" fill="#E43A6C"/>
<path id="Vector_13" d="M154.086 48.2948L178.16 89.9929L154.086 131.691H105.937L81.8627 89.9929L105.937 48.2948H154.086ZM156.885 43.4264H103.113L76.2396 89.9929L103.113 136.559H156.885L183.759 89.9929L156.885 43.4264Z" fill="#E43A6C"/>
<path id="Vector_14" d="M230.812 4.86843L254.887 46.5665L230.812 88.2646H182.663L158.589 46.5665L182.663 4.86843H230.812ZM233.611 0H179.84L152.966 46.5665L179.84 93.133H233.611L260.485 46.5665L233.611 0Z" fill="#E43A6C"/>
<path id="Vector_15" d="M229.693 93.2061L253.767 134.904L229.693 176.602H181.544L157.469 134.904L181.544 93.2061H229.693ZM232.516 88.3377H178.744L151.871 134.904L178.744 181.471H232.516L259.39 134.904L232.516 88.3377Z" fill="#E43A6C"/>
<path id="Vector_16" d="M370.317 91.6725L394.391 133.371L370.317 175.069H322.168L298.094 133.371L322.168 91.6725H370.317ZM373.116 86.8041H319.345L292.471 133.371L319.345 179.937H373.116L399.99 133.371L373.116 86.8041Z" fill="#E43A6C"/>
<path id="Vector_17" d="M515.201 7.30265L539.276 49.0007L515.201 90.6988H467.053L442.978 49.0007L467.053 7.30265H515.201ZM518.001 2.43422H464.229L437.355 49.0007L464.229 95.5673H518.001L544.875 49.0007L518.001 2.43422Z" fill="#E43A6C"/>
</g>
</g>
<defs>
<clipPath id="clip0_0_1"><rect width="681" height="286"/></clipPath>
</defs>
</svg>
